<mxfile host="Electron" modified="2023-11-22T12:46:21.382Z" agent="Mozilla/5.0 (Windows NT 10.0; Win64; x64) AppleWebKit/537.36 (KHTML, like Gecko) draw.io/22.1.2 Chrome/114.0.5735.289 Electron/25.9.4 Safari/537.36" etag="yIeG8HiyZqb1K3cfD7ZY" version="22.1.2" type="device">
  <diagram name="Page-1" id="39jIC6_QYYEStfCRgGmS">
    <mxGraphModel dx="1194" dy="732" grid="1" gridSize="10" guides="1" tooltips="1" connect="1" arrows="1" fold="1" page="1" pageScale="1" pageWidth="850" pageHeight="1100" math="0" shadow="0">
      <root>
        <mxCell id="0" />
        <mxCell id="1" parent="0" />
        <mxCell id="Ymh0tSFCfzRgLuESJz41-2" value="Actor" style="shape=umlActor;verticalLabelPosition=bottom;verticalAlign=top;html=1;outlineConnect=0;" vertex="1" parent="1">
          <mxGeometry x="70" y="490" width="30" height="60" as="geometry" />
        </mxCell>
        <mxCell id="Ymh0tSFCfzRgLuESJz41-8" value="Log In" style="ellipse;whiteSpace=wrap;html=1;" vertex="1" parent="1">
          <mxGeometry x="300" y="200" width="140" height="70" as="geometry" />
        </mxCell>
        <mxCell id="Ymh0tSFCfzRgLuESJz41-9" value="Authenticate" style="ellipse;whiteSpace=wrap;html=1;" vertex="1" parent="1">
          <mxGeometry x="550" y="290" width="140" height="70" as="geometry" />
        </mxCell>
        <mxCell id="Ymh0tSFCfzRgLuESJz41-10" value="Register" style="ellipse;whiteSpace=wrap;html=1;" vertex="1" parent="1">
          <mxGeometry x="300" y="360" width="140" height="70" as="geometry" />
        </mxCell>
        <mxCell id="Ymh0tSFCfzRgLuESJz41-11" value="" style="endArrow=block;dashed=1;endFill=0;endSize=12;html=1;rounded=0;exitX=0;exitY=0.5;exitDx=0;exitDy=0;entryX=1;entryY=0.5;entryDx=0;entryDy=0;" edge="1" parent="1" source="Ymh0tSFCfzRgLuESJz41-9" target="Ymh0tSFCfzRgLuESJz41-8">
          <mxGeometry width="160" relative="1" as="geometry">
            <mxPoint x="380" y="340" as="sourcePoint" />
            <mxPoint x="540" y="340" as="targetPoint" />
          </mxGeometry>
        </mxCell>
        <mxCell id="Ymh0tSFCfzRgLuESJz41-12" value="" style="endArrow=block;dashed=1;endFill=0;endSize=12;html=1;rounded=0;exitX=0;exitY=0.5;exitDx=0;exitDy=0;entryX=1;entryY=0.5;entryDx=0;entryDy=0;" edge="1" parent="1" source="Ymh0tSFCfzRgLuESJz41-9" target="Ymh0tSFCfzRgLuESJz41-10">
          <mxGeometry width="160" relative="1" as="geometry">
            <mxPoint x="480" y="430" as="sourcePoint" />
            <mxPoint x="640" y="430" as="targetPoint" />
          </mxGeometry>
        </mxCell>
        <mxCell id="Ymh0tSFCfzRgLuESJz41-13" value="" style="endArrow=open;endFill=1;endSize=12;html=1;rounded=0;exitX=1;exitY=0.3333333333333333;exitDx=0;exitDy=0;exitPerimeter=0;entryX=0;entryY=0.5;entryDx=0;entryDy=0;" edge="1" parent="1" source="Ymh0tSFCfzRgLuESJz41-2" target="Ymh0tSFCfzRgLuESJz41-8">
          <mxGeometry width="160" relative="1" as="geometry">
            <mxPoint x="380" y="320" as="sourcePoint" />
            <mxPoint x="540" y="320" as="targetPoint" />
          </mxGeometry>
        </mxCell>
        <mxCell id="Ymh0tSFCfzRgLuESJz41-14" value="" style="endArrow=open;endFill=1;endSize=12;html=1;rounded=0;exitX=1;exitY=0.3333333333333333;exitDx=0;exitDy=0;exitPerimeter=0;entryX=0;entryY=0.5;entryDx=0;entryDy=0;" edge="1" parent="1" source="Ymh0tSFCfzRgLuESJz41-2" target="Ymh0tSFCfzRgLuESJz41-10">
          <mxGeometry width="160" relative="1" as="geometry">
            <mxPoint x="380" y="320" as="sourcePoint" />
            <mxPoint x="540" y="320" as="targetPoint" />
          </mxGeometry>
        </mxCell>
        <mxCell id="Ymh0tSFCfzRgLuESJz41-15" value="&amp;lt;&amp;lt;extend&amp;gt;&amp;gt;" style="text;html=1;align=center;verticalAlign=middle;resizable=0;points=[];autosize=1;strokeColor=none;fillColor=none;" vertex="1" parent="1">
          <mxGeometry x="475" y="248" width="90" height="30" as="geometry" />
        </mxCell>
        <mxCell id="Ymh0tSFCfzRgLuESJz41-16" value="&amp;lt;&amp;lt;extend&amp;gt;&amp;gt;" style="text;html=1;align=center;verticalAlign=middle;resizable=0;points=[];autosize=1;strokeColor=none;fillColor=none;" vertex="1" parent="1">
          <mxGeometry x="470" y="368" width="90" height="30" as="geometry" />
        </mxCell>
        <mxCell id="Ymh0tSFCfzRgLuESJz41-17" value="Add Fullname" style="ellipse;whiteSpace=wrap;html=1;" vertex="1" parent="1">
          <mxGeometry x="300" y="480" width="140" height="70" as="geometry" />
        </mxCell>
        <mxCell id="Ymh0tSFCfzRgLuESJz41-18" value="Add Password" style="ellipse;whiteSpace=wrap;html=1;" vertex="1" parent="1">
          <mxGeometry x="300" y="600" width="140" height="70" as="geometry" />
        </mxCell>
        <mxCell id="Ymh0tSFCfzRgLuESJz41-19" value="Add Contact" style="ellipse;whiteSpace=wrap;html=1;" vertex="1" parent="1">
          <mxGeometry x="300" y="720" width="140" height="70" as="geometry" />
        </mxCell>
        <mxCell id="Ymh0tSFCfzRgLuESJz41-20" value="View Info" style="ellipse;whiteSpace=wrap;html=1;" vertex="1" parent="1">
          <mxGeometry x="300" y="840" width="140" height="70" as="geometry" />
        </mxCell>
        <mxCell id="Ymh0tSFCfzRgLuESJz41-21" value="" style="endArrow=open;endFill=1;endSize=12;html=1;rounded=0;exitX=1;exitY=0.3333333333333333;exitDx=0;exitDy=0;exitPerimeter=0;entryX=0;entryY=0.5;entryDx=0;entryDy=0;" edge="1" parent="1" source="Ymh0tSFCfzRgLuESJz41-2" target="Ymh0tSFCfzRgLuESJz41-17">
          <mxGeometry width="160" relative="1" as="geometry">
            <mxPoint x="190" y="390" as="sourcePoint" />
            <mxPoint x="310" y="405" as="targetPoint" />
          </mxGeometry>
        </mxCell>
        <mxCell id="Ymh0tSFCfzRgLuESJz41-22" value="" style="endArrow=open;endFill=1;endSize=12;html=1;rounded=0;exitX=1;exitY=0.3333333333333333;exitDx=0;exitDy=0;exitPerimeter=0;entryX=0;entryY=0.5;entryDx=0;entryDy=0;" edge="1" parent="1" source="Ymh0tSFCfzRgLuESJz41-2" target="Ymh0tSFCfzRgLuESJz41-18">
          <mxGeometry width="160" relative="1" as="geometry">
            <mxPoint x="190" y="390" as="sourcePoint" />
            <mxPoint x="310" y="525" as="targetPoint" />
          </mxGeometry>
        </mxCell>
        <mxCell id="Ymh0tSFCfzRgLuESJz41-23" value="" style="endArrow=open;endFill=1;endSize=12;html=1;rounded=0;exitX=1;exitY=0.3333333333333333;exitDx=0;exitDy=0;exitPerimeter=0;entryX=0;entryY=0.5;entryDx=0;entryDy=0;" edge="1" parent="1" source="Ymh0tSFCfzRgLuESJz41-2" target="Ymh0tSFCfzRgLuESJz41-19">
          <mxGeometry width="160" relative="1" as="geometry">
            <mxPoint x="190" y="390" as="sourcePoint" />
            <mxPoint x="310" y="645" as="targetPoint" />
          </mxGeometry>
        </mxCell>
        <mxCell id="Ymh0tSFCfzRgLuESJz41-24" value="" style="endArrow=open;endFill=1;endSize=12;html=1;rounded=0;exitX=1;exitY=0.3333333333333333;exitDx=0;exitDy=0;exitPerimeter=0;entryX=0;entryY=0.5;entryDx=0;entryDy=0;" edge="1" parent="1" source="Ymh0tSFCfzRgLuESJz41-2" target="Ymh0tSFCfzRgLuESJz41-20">
          <mxGeometry width="160" relative="1" as="geometry">
            <mxPoint x="190" y="390" as="sourcePoint" />
            <mxPoint x="310" y="765" as="targetPoint" />
          </mxGeometry>
        </mxCell>
        <mxCell id="Ymh0tSFCfzRgLuESJz41-27" value="" style="swimlane;startSize=0;" vertex="1" parent="1">
          <mxGeometry x="160" y="160" width="580" height="760" as="geometry" />
        </mxCell>
      </root>
    </mxGraphModel>
  </diagram>
</mxfile>
